<?xml version="1.0" encoding="UTF-8" standalone="no"?>
<svg
   width="100%"
   height="100%"
   viewBox="0 0 32 32"
   version="1.1"
   xml:space="preserve"
   style="clip-rule:evenodd;fill-rule:evenodd;stroke-linejoin:round;stroke-miterlimit:1.41421"
   id="svg6"
   sodipodi:docname="num_invites.svg"
   inkscape:version="1.4.2 (f4327f4, 2025-05-13)"
   xmlns:inkscape="http://www.inkscape.org/namespaces/inkscape"
   xmlns:sodipodi="http://sodipodi.sourceforge.net/DTD/sodipodi-0.dtd"
   xmlns="http://www.w3.org/2000/svg"
   xmlns:svg="http://www.w3.org/2000/svg"
   xmlns:rdf="http://www.w3.org/1999/02/22-rdf-syntax-ns#"
   xmlns:cc="http://creativecommons.org/ns#"
   xmlns:dc="http://purl.org/dc/elements/1.1/"><defs
   id="defs6"><linearGradient
     id="swatch2"
     inkscape:swatch="solid"><stop
       style="stop-color:#93a472;stop-opacity:1;"
       offset="0"
       id="stop2" /></linearGradient></defs><sodipodi:namedview
   id="namedview6"
   pagecolor="#ffffff"
   bordercolor="#000000"
   borderopacity="0.25"
   inkscape:showpageshadow="2"
   inkscape:pageopacity="0.0"
   inkscape:pagecheckerboard="0"
   inkscape:deskcolor="#d1d1d1"
   inkscape:zoom="11.313709"
   inkscape:cx="10.915961"
   inkscape:cy="21.610951"
   inkscape:window-width="1920"
   inkscape:window-height="991"
   inkscape:window-x="-9"
   inkscape:window-y="-9"
   inkscape:window-maximized="1"
   inkscape:current-layer="svg6"
   showgrid="true"
   showguides="true"><inkscape:grid
     id="grid1"
     units="px"
     originx="0"
     originy="0"
     spacingx="1"
     spacingy="1"
     empcolor="#0099e5"
     empopacity="0.30196078"
     color="#0099e5"
     opacity="0.14901961"
     empspacing="5"
     enabled="true"
     visible="true" /><sodipodi:guide
     position="35.311145,34.032932"
     orientation="0,-1"
     id="guide14"
     inkscape:locked="false" /></sodipodi:namedview>
<metadata
   id="metadata1">
<rdf:RDF>

     <rdf:Description
   rdf:about="">
       <dc:title>Mutant Standard emoji 2024.06</dc:title>
     </rdf:Description>

    <cc:work
   rdf:about="">
        <cc:license
   rdf:resource="http://creativecommons.org/licenses/by-nc-sa/4.0/" />
        <cc:attributionName>Caius Nocturne</cc:attributionName>
        <cc:attributionURL>http://mutant.tech/</cc:attributionURL>
    </cc:work>

</rdf:RDF>
</metadata>
<clipPath
   id="_clip1"><path
     d="M 32,0 V 32 H 0 V 0 Z"
     id="path1" /></clipPath><path
   id="rect11-1"
   style="clip-rule:evenodd;display:inline;fill:none;fill-opacity:1;fill-rule:evenodd;stroke:#000000;stroke-width:3.93983;stroke-linejoin:round;stroke-miterlimit:1.41421;stroke-opacity:1"
   d="m 16.009438,2.4699476 c -0.495363,0.00281 -1.004422,0.1838276 -1.470422,0.556813 L 11.488693,5.4241717 H 5.3691715 v 5.7277173 l -2.8993168,1.93708 V 29.53 l 27.0602913,8.3e-5 V 13.088969 l -2.899318,-1.93708 V 5.4241717 H 20.511307 L 17.398694,2.9855874 C 16.986084,2.6432108 16.5048,2.4671199 16.009438,2.4699476 Z"
   inkscape:label="outline"
   sodipodi:nodetypes="cccccccccccccc" /><path
   id="rect11"
   style="display:inline;fill:#878585;fill-opacity:1;stroke-width:3.93786"
   d="M 2.4688343,13.075673 14.538441,3.0256919 C 15.470507,2.280523 16.573428,2.2998015 17.398708,2.9838169 L 29.5311,13.075673 V 29.53 H 2.4688343 Z"
   sodipodi:nodetypes="ccccccc"
   inkscape:label="envelope" /><path
   id="rect13"
   style="clip-rule:evenodd;display:inline;fill:#ffffff;fill-opacity:1;fill-rule:evenodd;stroke:#141414;stroke-width:0.984464;stroke-linejoin:round;stroke-miterlimit:1.41421;stroke-dasharray:none;stroke-opacity:1"
   d="m 26.631604,15.259492 -4.5e-5,-9.8713016 -21.2632088,0.031336 4.54e-5,9.8319436 8.7391784,4.864348 3.784507,4.19e-4 z"
   sodipodi:nodetypes="ccccccc"
   inkscape:label="paper" /><path
   style="baseline-shift:baseline;clip-rule:nonzero;display:inline;overflow:visible;vector-effect:none;fill:#141414;fill-rule:nonzero;stroke-width:0.980667;stroke-linecap:round;stroke-linejoin:miter;stroke-miterlimit:1.41421;enable-background:accumulate;stop-color:#000000;stop-opacity:1"
   d="m 2.4688674,13.075499 11.7512656,6.527004 c 0.23411,0.130617 0.322256,0.435189 0.196683,0.6796 -0.125589,0.244048 -0.416723,0.335278 -0.649993,0.203684 L 2.4819798,14.210614 Z"
   id="path25-0"
   sodipodi:nodetypes="cccccc"
   inkscape:label="left" /><path
   style="baseline-shift:baseline;clip-rule:nonzero;display:inline;overflow:visible;opacity:1;vector-effect:none;fill:#141414;fill-rule:nonzero;stroke-width:0.984464;stroke-linecap:round;stroke-linejoin:miter;stroke-miterlimit:1.41421;enable-background:accumulate;stop-color:#000000;stop-opacity:1"
   d="m 29.531133,13.075499 -11.826527,6.577707 c -0.235927,0.130616 -0.324757,0.435188 -0.19821,0.6796 0.126563,0.244047 0.419957,0.335278 0.655036,0.203683 L 29.533836,14.21042 Z"
   id="path25"
   sodipodi:nodetypes="cccccc"
   inkscape:label="right" /><g
   id="path13"
   inkscape:label="bottom"
   style="clip-rule:evenodd;opacity:1;fill-rule:evenodd;stroke-linejoin:round;stroke-miterlimit:1.41421"
   transform="matrix(0.96650947,0,0,1.0027516,0.53584826,-0.24906441)"><path
     style="baseline-shift:baseline;clip-rule:nonzero;display:inline;overflow:visible;vector-effect:none;fill:#878585;fill-rule:nonzero;stroke-linecap:round;stroke-linejoin:miter;stroke-miterlimit:0.91;enable-background:accumulate;stop-color:#000000;stop-opacity:1"
     d="M 29.756898,27.045105 16.999966,19.788173 c -0.778929,-0.341798 -1.171807,-0.363893 -2,0 L 2.243034,27.045105"
     id="path21" /><path
     style="baseline-shift:baseline;clip-rule:nonzero;display:inline;overflow:visible;vector-effect:none;fill:#141414;fill-rule:nonzero;stroke-linecap:round;stroke-linejoin:miter;stroke-miterlimit:0.91;enable-background:accumulate;stop-color:#000000;stop-opacity:1"
     d="m 16.021484,19.046875 c -0.385929,-0.0033 -0.778489,0.08804 -1.222656,0.283203 -0.01602,0.007 -0.03167,0.01481 -0.04687,0.02344 L 1.9960937,29.019215 2,29.697144 h 0.8323986 l 12.3804924,-9.45499 c 0.747202,-0.327398 0.864692,-0.310916 1.574218,0 l 12.385137,9.455401 0.825801,-4.11e-4 0.0039,-0.338365 -12.753906,-10.005263 c -0.0152,-0.0086 -0.03085,-0.01645 -0.04687,-0.02344 -0.414159,-0.181735 -0.793758,-0.279871 -1.179688,-0.283203 z"
     id="path22"
     sodipodi:nodetypes="sccccccccccccss" /></g></svg>
