<?xml version="1.0" encoding="UTF-8" standalone="no"?>
<svg
   width="100%"
   height="100%"
   viewBox="0 0 32 32"
   version="1.1"
   xml:space="preserve"
   style="clip-rule:evenodd;fill-rule:evenodd;stroke-linejoin:round;stroke-miterlimit:1.41421"
   id="svg6"
   sodipodi:docname="num_invites.svg"
   inkscape:version="1.4.2 (f4327f4, 2025-05-13)"
   xmlns:inkscape="http://www.inkscape.org/namespaces/inkscape"
   xmlns:sodipodi="http://sodipodi.sourceforge.net/DTD/sodipodi-0.dtd"
   xmlns="http://www.w3.org/2000/svg"
   xmlns:svg="http://www.w3.org/2000/svg"
   xmlns:rdf="http://www.w3.org/1999/02/22-rdf-syntax-ns#"
   xmlns:cc="http://creativecommons.org/ns#"
   xmlns:dc="http://purl.org/dc/elements/1.1/"><defs
   id="defs6"><linearGradient
     id="swatch2"
     inkscape:swatch="solid"><stop
       style="stop-color:#93a472;stop-opacity:1;"
       offset="0"
       id="stop2" /></linearGradient></defs><sodipodi:namedview
   id="namedview6"
   pagecolor="#ffffff"
   bordercolor="#000000"
   borderopacity="0.25"
   inkscape:showpageshadow="2"
   inkscape:pageopacity="0.0"
   inkscape:pagecheckerboard="0"
   inkscape:deskcolor="#d1d1d1"
   inkscape:zoom="11.313709"
   inkscape:cx="12.418563"
   inkscape:cy="21.080621"
   inkscape:window-width="1920"
   inkscape:window-height="991"
   inkscape:window-x="-9"
   inkscape:window-y="-9"
   inkscape:window-maximized="1"
   inkscape:current-layer="svg6"
   showgrid="true"
   showguides="true"><inkscape:grid
     id="grid1"
     units="px"
     originx="0"
     originy="0"
     spacingx="1"
     spacingy="1"
     empcolor="#0099e5"
     empopacity="0.30196078"
     color="#0099e5"
     opacity="0.14901961"
     empspacing="5"
     enabled="true"
     visible="true" /><sodipodi:guide
     position="35.311145,34.032932"
     orientation="0,-1"
     id="guide14"
     inkscape:locked="false" /></sodipodi:namedview>
<metadata
   id="metadata1">
<rdf:RDF>

     <rdf:Description
   rdf:about="">
       <dc:title>Mutant Standard emoji 2024.06</dc:title>
     </rdf:Description>

    <cc:work
   rdf:about="">
        <cc:license
   rdf:resource="http://creativecommons.org/licenses/by-nc-sa/4.0/" />
        <cc:attributionName>Caius Nocturne</cc:attributionName>
        <cc:attributionURL>http://mutant.tech/</cc:attributionURL>
    </cc:work>

</rdf:RDF>
</metadata>
<clipPath
   id="_clip1"><path
     d="M 32,0 V 32 H 0 V 0 Z"
     id="path1" /></clipPath><path
   id="rect11-1"
   style="clip-rule:evenodd;fill-rule:evenodd;stroke-linejoin:round;stroke-miterlimit:1.41421;display:inline;fill:none;fill-opacity:1;stroke:#000000;stroke-width:4;stroke-opacity:1"
   d="m 16.009766,20.014078 c -0.512565,0.0028 -1.039303,0.183126 -1.521485,0.554688 l -3.15625,2.029296 H 5 v 4.070313 l -3,1.929687 v 14 h 28 v -14 L 27,26.668375 V 22.598062 H 20.667969 L 17.447266,20.52775 c -0.426939,-0.34107 -0.924936,-0.516489 -1.4375,-0.513672 z"
   transform="translate(0,-15.309)"
   inkscape:label="outline" /><path
   id="rect11"
   style="display:inline;fill:#878585;fill-opacity:1;stroke-width:4"
   d="m 1.999966,13.288173 12.48783,-8.0278909 c 0.964363,-0.7431241 2.105502,-0.7238985 2.959379,-0.04176 l 12.552791,8.0696509 v 14 h -28 z"
   sodipodi:nodetypes="ccccccc"
   inkscape:label="envelope" /><path
   id="rect13"
   style="clip-rule:evenodd;fill-rule:evenodd;stroke-linejoin:round;stroke-miterlimit:1.41421;display:inline;fill:#ffffff;fill-opacity:1;stroke:#141414;stroke-width:1;stroke-dasharray:none;stroke-opacity:1"
   d="m 27,15.466 -4.7e-5,-7.8497022 -22,0.03125 L 5,15.458 l 9.042,4.851 3.915643,4.18e-4 z"
   sodipodi:nodetypes="ccccccc"
   inkscape:label="paper" /><path
   style="clip-rule:nonzero;fill-rule:nonzero;stroke-linejoin:miter;stroke-miterlimit:1.41421;baseline-shift:baseline;display:inline;overflow:visible;vector-effect:none;fill:#141414;stroke-linecap:round;enable-background:accumulate;stop-color:#000000;stop-opacity:1"
   d="m 30.016469,13.338563 -12.252797,6.509094 c -0.244102,0.130258 -0.33601,0.433994 -0.205078,0.677735 0.130949,0.243378 0.434509,0.334358 0.677734,0.203125 l 11.766469,-6.257954 z"
   id="path25-0"
   sodipodi:nodetypes="cccccc"
   inkscape:label="left"
   transform="matrix(-0.99230062,0,0,1,31.785361,-0.05056314)" /><path
   style="baseline-shift:baseline;clip-rule:nonzero;display:inline;overflow:visible;opacity:1;vector-effect:none;fill:#141414;fill-rule:nonzero;stroke-linecap:round;stroke-linejoin:miter;stroke-miterlimit:1.41421;enable-background:accumulate;stop-color:#000000;stop-opacity:1"
   d="m 30,13.288 -12.236328,6.559657 c -0.244102,0.130258 -0.33601,0.433994 -0.205078,0.677735 0.130949,0.243378 0.434509,0.334358 0.677734,0.203125 l 11.766469,-6.30871 z"
   id="path25"
   sodipodi:nodetypes="cccccc"
   inkscape:label="right" /><g
   id="path13"
   inkscape:label="bottom"
   style="clip-rule:evenodd;fill-rule:evenodd;stroke-linejoin:round;stroke-miterlimit:1.41421;opacity:1"><path
     style="baseline-shift:baseline;clip-rule:nonzero;display:inline;overflow:visible;vector-effect:none;fill:#878585;fill-rule:nonzero;stroke-linecap:round;stroke-linejoin:miter;stroke-miterlimit:0.91;enable-background:accumulate;stop-color:#000000;stop-opacity:1"
     d="M 29.756898,27.045105 16.999966,19.788173 c -0.778929,-0.341798 -1.171807,-0.363893 -2,0 L 2.243034,27.045105"
     id="path21" /><path
     style="baseline-shift:baseline;clip-rule:nonzero;display:inline;overflow:visible;vector-effect:none;fill:#141414;fill-rule:nonzero;stroke-linecap:round;stroke-linejoin:miter;stroke-miterlimit:0.91;enable-background:accumulate;stop-color:#000000;stop-opacity:1"
     d="m 16.021484,19.046875 c -0.385929,-0.0033 -0.778489,0.08804 -1.222656,0.283203 -0.01602,0.007 -0.03167,0.01481 -0.04687,0.02344 L 1.9960937,26.611328 2,27.288 H 2.8323986 L 15.212891,20.242154 c 0.747202,-0.327398 0.864692,-0.310916 1.574218,0 l 12.385137,7.046257 0.825801,-4.11e-4 0.0039,-0.67673 -12.753906,-7.257754 c -0.0152,-0.0086 -0.03085,-0.01645 -0.04687,-0.02344 -0.414159,-0.181735 -0.793758,-0.279871 -1.179688,-0.283203 z"
     id="path22"
     sodipodi:nodetypes="sccccccccccccss" /></g></svg>
