<?xml version="1.0" encoding="UTF-8" standalone="no"?>
<svg
   width="100%"
   height="100%"
   viewBox="0 0 32 32"
   version="1.1"
   xml:space="preserve"
   style="clip-rule:evenodd;fill-rule:evenodd;stroke-linejoin:round;stroke-miterlimit:1.41421"
   id="svg6"
   sodipodi:docname="score.svg"
   inkscape:version="1.4.2 (f4327f4, 2025-05-13)"
   xmlns:inkscape="http://www.inkscape.org/namespaces/inkscape"
   xmlns:sodipodi="http://sodipodi.sourceforge.net/DTD/sodipodi-0.dtd"
   xmlns="http://www.w3.org/2000/svg"
   xmlns:svg="http://www.w3.org/2000/svg"
   xmlns:rdf="http://www.w3.org/1999/02/22-rdf-syntax-ns#"
   xmlns:cc="http://creativecommons.org/ns#"
   xmlns:dc="http://purl.org/dc/elements/1.1/"><defs
   id="defs6"><linearGradient
     id="swatch2"
     inkscape:swatch="solid"><stop
       style="stop-color:#93a472;stop-opacity:1;"
       offset="0"
       id="stop2" /></linearGradient></defs><sodipodi:namedview
   id="namedview6"
   pagecolor="#ffffff"
   bordercolor="#000000"
   borderopacity="0.25"
   inkscape:showpageshadow="2"
   inkscape:pageopacity="0.0"
   inkscape:pagecheckerboard="0"
   inkscape:deskcolor="#d1d1d1"
   inkscape:zoom="8"
   inkscape:cx="43.4375"
   inkscape:cy="-12.0625"
   inkscape:window-width="1920"
   inkscape:window-height="991"
   inkscape:window-x="-9"
   inkscape:window-y="-9"
   inkscape:window-maximized="1"
   inkscape:current-layer="svg6"
   showgrid="true"
   showguides="false"><inkscape:grid
     id="grid1"
     units="px"
     originx="0"
     originy="0"
     spacingx="1"
     spacingy="1"
     empcolor="#0099e5"
     empopacity="0.30196078"
     color="#0099e5"
     opacity="0.14901961"
     empspacing="5"
     enabled="true"
     visible="true" /></sodipodi:namedview>
<metadata
   id="metadata1">
<rdf:RDF>

     <rdf:Description
   rdf:about="">
       <dc:title>Mutant Standard emoji 2024.06</dc:title>
     </rdf:Description>

    <cc:work
   rdf:about="">
        <cc:license
   rdf:resource="http://creativecommons.org/licenses/by-nc-sa/4.0/" />
        <cc:attributionName>Caius Nocturne</cc:attributionName>
        <cc:attributionURL>http://mutant.tech/</cc:attributionURL>
    </cc:work>

</rdf:RDF>
</metadata>
<clipPath
   id="_clip1"><path
     d="M 32,0 V 32 H 0 V 0 Z"
     id="path1" /></clipPath><g
   id="layer1"
   inkscape:label="outline"
   style="display:inline;stroke:#000000;stroke-opacity:1"
   transform="matrix(0.95139081,0,0,0.95139081,-0.47915585,-3.3187603)"><path
     id="path18-9-8"
     style="clip-rule:evenodd;display:inline;fill:none;fill-opacity:1;fill-rule:evenodd;stroke:#141414;stroke-width:4;stroke-linecap:round;stroke-linejoin:miter;stroke-miterlimit:1.51;stroke-dasharray:none;stroke-opacity:1"
     inkscape:label="big circle"
     d="M 13.4375 15.86914 A 7 7 0 0 0 8.9999997 22.384765 A 7 7 0 0 0 16 29.384765 A 7 7 0 0 0 22.999999 22.384765 A 7 7 0 0 0 19.281249 16.201171 L 19.281249 17.343749 L 13.4375 17.343749 L 13.4375 15.86914 z "
     transform="matrix(1.0510928,0,0,1.0510928,0.50363725,3.488325)" /><path
     style="clip-rule:evenodd;fill:none;fill-opacity:1;fill-rule:evenodd;stroke:#00000f;stroke-width:4;stroke-linecap:butt;stroke-linejoin:round;stroke-miterlimit:1.7;stroke-dasharray:none;stroke-opacity:1"
     d="m 22.030999,18.399999 7.969,-7.499999 -3,-7.4000002 H 4.9999998 L 1.9999999,10.9 l 7.9999998,7.499999 6.1260833,0.07707 z"
     id="path8"
     sodipodi:nodetypes="cccccccc"
     transform="matrix(1.0510928,0,0,1.0510928,0.50363725,3.488325)" /></g><path
   id="path18"
   style="fill:#faf5f5;stroke:#141414;stroke-width:1;stroke-linecap:round;stroke-linejoin:miter;stroke-miterlimit:1.51;fill-opacity:1;stroke-dasharray:none"
   inkscape:label="front"
   d="m 5,3.5 -3,7.400391 8,7.5 h 0.261719 C 11.565744,16.516719 13.709003,15.390377 16,15.384766 c 2.290997,0.0056 4.434256,1.131953 5.738281,3.015625 H 22.03125 L 30,10.900391 27,3.5 16,15.244141 Z"
   sodipodi:nodetypes="ccccccccccc" /><path
   id="path18-9"
   style="clip-rule:evenodd;display:inline;fill:#faf5f5;fill-rule:evenodd;stroke:#141414;stroke-width:1;stroke-linecap:round;stroke-linejoin:miter;stroke-miterlimit:1.51;stroke-opacity:1;fill-opacity:1;stroke-dasharray:none"
   inkscape:label="big circle"
   d="m 23,22.384 a 7,7 0 0 1 -7,7 7,7 0 0 1 -7,-7 7,7 0 0 1 7,-7 7,7 0 0 1 7,7 z" /><g
   id="layer5"
   inkscape:label="shadow"
   style="display:none"
   transform="matrix(0.95139081,0,0,0.81972512,-1.5032044,1.8289785)" /><text
   xml:space="preserve"
   style="font-weight:bold;font-stretch:condensed;font-size:14.4011px;font-family:Arial;-inkscape-font-specification:'Arial, Bold Condensed';text-align:start;writing-mode:lr-tb;direction:ltr;text-anchor:start;fill:#141414;fill-opacity:1;stroke:none;stroke-width:1.13926;stroke-linecap:round;stroke-linejoin:miter;stroke-miterlimit:1.51;stroke-dasharray:none;stroke-opacity:1;paint-order:normal"
   x="11.251198"
   y="29.70204"
   id="text18"
   transform="scale(1.0957221,0.91264015)"
   inkscape:label="#1"><tspan
     id="tspan18"
     x="11.251198"
     y="29.70204"
     style="fill:#141414;fill-opacity:1;stroke:none;stroke-width:1.13926;stroke-linecap:round"
     sodipodi:role="line">1</tspan></text><g
   id="g1"
   style="stroke-width:1;stroke-dasharray:none"><path
     style="fill:#878585;fill-opacity:1;stroke:#141414;stroke-width:1;stroke-linecap:round;stroke-linejoin:round;stroke-miterlimit:1.51;stroke-dasharray:none;stroke-opacity:1;paint-order:normal"
     d="M 20.877,10 H 11.123 L 5,3.5 h 22 z"
     id="path25"
     sodipodi:nodetypes="ccccc"
     inkscape:label="back" /></g><g
   id="g8"
   inkscape:label="lines"><path
     style="fill:#faf5f5;fill-opacity:1;stroke:#141414;stroke-width:0.8;stroke-linecap:butt;stroke-linejoin:round;stroke-miterlimit:1.7;stroke-dasharray:none;stroke-opacity:1"
     d="m 3.2101054,7.2611553 9.5352976,9.0362127 v 0"
     id="path5" /><path
     style="fill:#faf5f5;fill-opacity:1;stroke:#141414;stroke-width:0.8;stroke-linecap:butt;stroke-linejoin:round;stroke-miterlimit:1.7;stroke-dasharray:none;stroke-opacity:1"
     d="M 28.668343,7.5148559 19.55616,16.11862"
     id="path6" /></g></svg>
