<?xml version="1.0" encoding="UTF-8" standalone="no"?>
<svg
   width="100%"
   height="100%"
   viewBox="0 0 32 32"
   version="1.1"
   xml:space="preserve"
   style="clip-rule:evenodd;fill-rule:evenodd;stroke-linejoin:round;stroke-miterlimit:1.41421"
   id="svg6"
   sodipodi:docname="settings.svg"
   inkscape:version="1.4.2 (f4327f4, 2025-05-13)"
   xmlns:inkscape="http://www.inkscape.org/namespaces/inkscape"
   xmlns:sodipodi="http://sodipodi.sourceforge.net/DTD/sodipodi-0.dtd"
   xmlns="http://www.w3.org/2000/svg"
   xmlns:svg="http://www.w3.org/2000/svg"
   xmlns:rdf="http://www.w3.org/1999/02/22-rdf-syntax-ns#"
   xmlns:cc="http://creativecommons.org/ns#"
   xmlns:dc="http://purl.org/dc/elements/1.1/"><defs
   id="defs6"><linearGradient
     id="swatch2"
     inkscape:swatch="solid"><stop
       style="stop-color:#93a472;stop-opacity:1;"
       offset="0"
       id="stop2" /></linearGradient></defs><sodipodi:namedview
   id="namedview6"
   pagecolor="#ffffff"
   bordercolor="#000000"
   borderopacity="0.25"
   inkscape:showpageshadow="2"
   inkscape:pageopacity="0.0"
   inkscape:pagecheckerboard="0"
   inkscape:deskcolor="#d1d1d1"
   inkscape:zoom="16"
   inkscape:cx="18.46875"
   inkscape:cy="15.09375"
   inkscape:window-width="1920"
   inkscape:window-height="991"
   inkscape:window-x="-9"
   inkscape:window-y="-9"
   inkscape:window-maximized="1"
   inkscape:current-layer="svg6"
   showgrid="true"
   showguides="false"><inkscape:grid
     id="grid1"
     units="px"
     originx="0"
     originy="0"
     spacingx="1"
     spacingy="1"
     empcolor="#0099e5"
     empopacity="0.30196078"
     color="#0099e5"
     opacity="0.14901961"
     empspacing="5"
     enabled="true"
     visible="true" /></sodipodi:namedview>
<metadata
   id="metadata1">
<rdf:RDF>

     <rdf:Description
   rdf:about="">
       <dc:title>Mutant Standard emoji 2024.06</dc:title>
     </rdf:Description>

    <cc:work
   rdf:about="">
        <cc:license
   rdf:resource="http://creativecommons.org/licenses/by-nc-sa/4.0/" />
        <cc:attributionName>Caius Nocturne</cc:attributionName>
        <cc:attributionURL>http://mutant.tech/</cc:attributionURL>
    </cc:work>

</rdf:RDF>
</metadata>
<clipPath
   id="_clip1"><path
     d="M 32,0 V 32 H 0 V 0 Z"
     id="path1" /></clipPath><path
   id="path9-0-9"
   style="clip-rule:evenodd;fill:none;fill-opacity:1;fill-rule:evenodd;stroke:#141414;stroke-width:4;stroke-linejoin:round;stroke-miterlimit:1.41421;stroke-dasharray:none;stroke-opacity:1"
   inkscape:label="shadow"
   d="M 14.290241,2.9541113 14.094929,3.293955 C 13.987567,3.4812869 13.729659,4.0387454 13.522663,4.5341894 13.315665,5.0296335 13.050086,5.5376456 12.93282,5.6630956 12.800849,5.8042764 12.506618,5.961308 12.159382,6.075205 11.850835,6.176412 11.247625,6.4195987 10.819538,6.6142675 9.9100155,7.0278696 10.007265,7.036398 8.3351627,6.3916113 7.7745527,6.1754322 7.2818848,5.9990331 7.2414127,5.9990331 c -0.04047,0 -0.4244536,0.3367329 -0.8535156,0.7480469 -0.686005,0.6576278 -0.7729561,0.7709633 -0.7207031,0.9414063 0.03269,0.1066012 0.2394924,0.6803345 0.4589844,1.2753906 0.527121,1.4290341 0.5283677,1.5741751 0.011719,2.6855471 -0.225383,0.48486 -0.4511681,1.011113 -0.5019531,1.169922 -0.138497,0.433128 -0.3382146,0.57357 -1.6503906,1.160156 -0.661171,0.295567 -1.2483865,0.572984 -1.3046875,0.617188 -0.07616,0.05979 -0.096616,0.35874 -0.080078,1.169922 l 0.021484,1.091797 1.390625,0.679687 c 1.08941,0.533957 1.4144435,0.731813 1.5078125,0.910156 0.06552,0.125143 0.3371446,0.736662 0.6035157,1.359375 0.4793859,1.120684 0.4838941,1.135869 0.3925781,1.535157 -0.05074,0.221865 -0.2499973,0.800295 -0.4414063,1.285156 -0.506152,1.28213 -0.5032646,1.259489 -0.1503906,1.662109 0.509166,0.580946 1.0909806,1.106062 1.2753906,1.152344 l 1.2539063,0.523438 c 0.0191,0.008 0.051593,0.0095 0.095703,0.0039 0.197479,-0.02496 0.6342773,-0.18016 1.212891,-0.410156 0.9574835,-0.380604 1.2982905,-0.524108 1.6074225,-0.486329 0.236788,0.0995 0.468729,0.188517 0.662109,0.257813 0.0034,0.0012 0.0084,0.0027 0.01172,0.0039 0.01102,0.0049 0.02295,0.0096 0.03516,0.01367 0.0078,0.0027 0.01975,0.0091 0.02734,0.01172 0.79082,0.274486 0.811991,0.299647 1.447265,1.660156 0.250878,0.537293 0.519146,1.095782 0.595703,1.240234 l 0.138672,0.261719 h 0.0293 c -0.002,0.0011 -0.0076,0.0033 -0.0098,0.0039 -0.0022,3.31e-4 -0.0054,2.23e-4 -0.0078,0 l 1.242187,0.519532 1.123047,-0.02344 1.121094,-0.02148 0.441406,-0.960938 c 0.891245,-1.936972 0.843468,-1.875085 1.611329,-2.126953 0.29989,-0.09837 0.897357,-0.338199 1.326171,-0.533203 l 0.779297,-0.355469 0.66211,0.238281 c 0.364593,0.131388 0.963241,0.350764 1.330078,0.486329 0.36684,0.135566 0.738066,0.246093 0.824218,0.246093 0.0905,0 0.464266,-0.306062 0.884766,-0.726562 0.85252,-0.85252 0.833878,-0.673806 0.220703,-2.251953 -0.504301,-1.297934 -0.522354,-1.542027 -0.166015,-2.244141 0.146872,-0.289393 0.381849,-0.840404 0.521484,-1.224609 0.291896,-0.803148 0.174185,-0.710791 2.080078,-1.601563 l 1.103516,-0.517578 -0.02148,-1.146484 -0.02344,-1.146485 -0.59961,-0.300781 c -0.330577,-0.165352 -0.953592,-0.459242 -1.382812,-0.654297 -0.619368,-0.281469 -0.799839,-0.402412 -0.873047,-0.582031 -0.05074,-0.124482 -0.311709,-0.693746 -0.580078,-1.265625 -0.330799,-0.704923 -0.485548,-1.130485 -0.480469,-1.324219 0.0065,-0.248323 0.346606,-1.335186 0.808594,-2.5839846 L 26.393757,8.0459081 25.675007,7.3232519 C 25.279379,6.9257844 24.899125,6.5817427 24.829304,6.55958 l -1.248047,-0.5195313 -0.0078,-0.00391 h -0.002 c -0.0023,-5.612e-4 -0.0051,-0.00196 -0.0078,-0.00195 -0.0013,-9.32e-5 -0.0024,3.75e-5 -0.0039,0 -0.111039,-0.00284 -0.613773,0.1536487 -1.158174,0.361325 -1.652097,0.6302398 -1.645191,0.6297494 -2.527344,0.2148438 -0.238901,-0.1123629 -0.514931,-0.2336937 -0.75,-0.3300782 C 18.935914,6.0067901 18.76414,5.5989158 18.450398,4.9326269 18.187233,4.3737483 17.983276,3.8848232 17.844929,3.6884863 17.799979,3.6246933 17.752869,3.5935648 17.70821,3.5478613 17.50242,3.4216045 16.896296,3.0697755 16.524616,3.0693456 16.448736,2.9779146 16.196287,2.9541112 15.358601,2.9541113 Z m 2.335938,7.3066407 c 0.577874,0 1.113784,0.09754 1.666015,0.234375 1.916135,0.916026 3.080079,2.988045 3.080079,5.242188 0,3.313708 -2.686292,6 -6,6 -0.577875,0 -1.088394,-0.01941 -1.664063,-0.234375 -1.884883,-0.939463 -3.082031,-2.988046 -3.082031,-5.242188 0,-3.313708 2.686292,-6 6,-6 z"
   sodipodi:nodetypes="ccssscsssccccsccccssssscccccccccscccccccccscccsssssscccccsssccccccccccsscssccscscsscss" /><path
   id="path9-0"
   style="clip-rule:evenodd;fill:#878585;fill-opacity:1;fill-rule:evenodd;stroke:none;stroke-linejoin:round;stroke-miterlimit:1.41421"
   d="M 15.544905,3.4756335 15.349593,3.8154772 C 15.242232,4.0028091 14.984323,4.5622207 14.777327,5.0576647 14.570329,5.5531088 14.304749,6.061121 14.187483,6.186571 14.055513,6.3277518 13.761282,6.4847833 13.414046,6.5986804 13.105499,6.6998873 12.502289,6.9411209 12.074202,7.1357897 11.16468,7.5493918 11.261928,7.5598734 9.5898273,6.9150866 9.0292173,6.6989076 8.5365494,6.5205554 8.4960773,6.5205554 c -0.04047,0 -0.4244536,0.3367328 -0.8535156,0.7480468 C 6.9565567,7.92623 6.8696056,8.0395655 6.9218586,8.2100085 6.9545486,8.3166097 7.161351,8.890343 7.380843,9.4853991 c 0.527121,1.4290349 0.5283677,1.5741749 0.011719,2.6855469 -0.225383,0.48486 -0.4531212,1.011113 -0.5039062,1.169922 -0.138497,0.433128 -0.3382147,0.573571 -1.6503906,1.160157 -0.5673535,0.253627 -1.0783806,0.494808 -1.2480469,0.585937 h 3.8457028 v 4.921875 H 7.240218 c 0.045489,0.105052 0.092387,0.21211 0.1386719,0.320312 0.4793859,1.120685 0.4838941,1.137822 0.3925781,1.53711 -0.05074,0.221865 -0.2499973,0.800295 -0.4414063,1.285156 -0.506152,1.28213 -0.6236131,2.0858 -0.1294302,2.291728 l 1.2544302,0.522725 c 0.019102,0.008 0.051254,0.0089 0.095364,0.0033 0.1974788,-0.02496 0.6346167,-0.179529 1.2132302,-0.409526 1.5408731,-0.612504 1.4846351,-0.608601 2.2695311,-0.228515 0.362442,0.175515 1.460028,-0.160969 1.328125,0.552734 0.79082,0.274486 1.171427,2.740714 0.92832,2.639306 l 1.25332,0.522803 1.123047,-0.02344 1.121094,-0.02148 0.441406,-0.960938 c 0.891245,-1.936972 0.843467,-1.875085 1.611328,-2.126953 0.299891,-0.09837 0.897358,-0.338199 1.326172,-0.533203 l 0.779297,-0.355469 0.662109,0.238281 c 0.364593,0.131387 0.963241,0.350763 1.330078,0.486328 0.36684,0.135566 0.738067,0.246094 0.824219,0.246094 0.0905,0 0.464266,-0.306062 0.884766,-0.726562 0.85252,-0.85252 0.833878,-0.673807 0.220703,-2.251954 -0.504301,-1.297934 -0.522355,-1.542026 -0.166016,-2.24414 0.146872,-0.289393 0.38185,-0.840405 0.521485,-1.22461 0.291896,-0.803148 0.174185,-0.71079 2.080078,-1.601562 l 1.103515,-0.517578 -0.02148,-1.146484 -0.02344,-1.146485 -0.59961,-0.300781 C 28.431126,14.669682 27.80811,14.375767 27.37889,14.180712 26.759522,13.899243 26.579051,13.7783 26.505843,13.598681 c -0.05074,-0.124482 -0.311709,-0.693746 -0.580078,-1.265625 -0.330799,-0.704923 -0.485548,-1.130485 -0.480469,-1.324219 0.0065,-0.248323 0.346606,-1.3351862 0.808594,-2.5839848 L 26.394515,8.045946 25.675765,7.3232897 C 25.280137,6.9258222 24.899883,6.5817805 24.830062,6.5596178 L 23.574632,6.0371425 C 23.421549,5.9734337 22.011043,7.5487423 21.12889,7.1338366 20.720062,6.9415514 20.144367,6.8991204 19.915444,6.8242852 19.133526,6.5686634 19.081917,6.272203 18.451155,4.9326647 18.18799,4.3737861 17.983766,3.8849365 17.845419,3.6885995 17.800468,3.6248065 17.753019,3.5940379 17.70836,3.548334 17.50257,3.4220773 16.896312,3.0705724 16.524632,3.0701425 c -0.353441,-4.088e-4 -0.979727,0.405491 -0.979727,0.405491 z m 1.082032,6.7851565 c 3.313708,0 6,2.686292 6,6 0,3.313708 -2.686292,6 -6,6 -3.313708,0 -6,-2.686292 -6,-6 0,-3.313708 2.686292,-6 6,-6 z"
   inkscape:label="shadow"
   sodipodi:nodetypes="ccssscsssccccsccccsssssscscsccccscccsssssscccccssscccccsscsssscsssss" /><path
   id="path9"
   style="fill:#faf5f5;fill-opacity:1;stroke:none"
   d="m 21.373453,15.73831 c 0,3.313708 -2.686292,6 -6,6 -3.313708,0 -6.0000003,-2.686292 -6.0000003,-6 2e-7,-3.313708 2.6862923,-6 6.0000003,-6.0000001 3.313708,0 6,2.6862921 6,6.0000001 z m -4.398716,11.778688 c 0.891245,-1.936972 0.843915,-1.874531 1.611776,-2.126399 0.299891,-0.09837 0.896103,-0.3384 1.324917,-0.533404 l 0.779661,-0.354554 0.662894,0.238887 c 0.364593,0.131387 0.963037,0.349804 1.329874,0.485368 0.36684,0.135566 0.73747,0.246483 0.823622,0.246483 0.0905,0 0.463962,-0.307319 0.884462,-0.727819 0.85252,-0.85252 0.834922,-0.673799 0.221746,-2.251946 -0.5043,-1.297934 -0.522272,-1.540856 -0.165933,-2.242971 0.146872,-0.289393 0.381287,-0.840516 0.520922,-1.224721 0.291895,-0.803148 0.173445,-0.711856 2.079338,-1.602628 l 1.104181,-0.516068 -0.02226,-1.146541 -0.02226,-1.146544 -0.601065,-0.300593 c -0.330576,-0.165327 -0.952238,-0.460185 -1.381457,-0.65524 -0.619369,-0.281469 -0.799433,-0.401349 -0.872642,-0.580968 -0.05074,-0.124482 -0.311818,-0.694226 -0.580187,-1.266105 -0.330799,-0.704923 -0.485529,-1.131818 -0.48045,-1.325552 0.0065,-0.248323 0.34621,-1.3338656 0.808197,-2.5826642 L 25.140618,7.52311 24.421296,6.8004391 C 24.025668,6.4029716 23.644453,6.059639 23.574632,6.0374764 23.504804,6.0153198 22.977645,6.1766455 22.402672,6.3959842 20.750576,7.026224 20.757263,7.0256561 19.87511,6.6107504 19.466282,6.4184652 18.944486,6.1999077 18.715563,6.1250725 17.933645,5.8694507 17.82815,5.7503308 17.197387,4.4107927 16.880387,3.7375858 16.577878,3.1342993 16.524632,3.0701425 16.448752,2.9787115 16.196365,2.9534844 15.358679,2.9534844 h -1.068725 l -0.195196,0.3406042 c -0.107362,0.1873319 -0.364555,0.7459673 -0.571551,1.2414113 -0.206998,0.4954441 -0.472304,1.00345 -0.58957,1.1289 -0.13197,0.1411808 -0.426968,0.2982051 -0.774204,0.4121021 -0.308547,0.101207 -0.911243,0.3432862 -1.33933,0.537955 -0.9095225,0.4136021 -0.812829,0.4222613 -2.4849307,-0.2225255 -0.56061,-0.216179 -1.052402,-0.393051 -1.092874,-0.393051 -0.04047,0 -0.424632,0.3365292 -0.853694,0.7478432 -0.6860047,0.6576278 -0.7729459,0.7712265 -0.7206934,0.9416695 0.032688,0.1066012 0.2390114,0.6806842 0.4585034,1.2757403 0.527121,1.4290345 0.527719,1.5733825 0.011066,2.6847545 -0.225383,0.48486 -0.4513353,1.011499 -0.5021201,1.170308 -0.1384967,0.433128 -0.3382727,0.573554 -1.650449,1.16014 -0.6611706,0.295567 -1.2481916,0.573559 -1.3044926,0.617763 -0.076162,0.05979 -0.096678,0.35951 -0.080143,1.170692 l 0.022233,1.090326 1.3898364,0.681206 c 1.0894106,0.533957 1.41559,0.730388 1.5089595,0.908731 0.065516,0.125143 0.3370628,0.737017 0.6034338,1.35973 0.479386,1.120684 0.483376,1.136312 0.39206,1.5356 -0.05074,0.221865 -0.24886,0.800095 -0.440269,1.284956 -0.5061521,1.28213 -0.5040331,1.258822 -0.151159,1.661442 0.509166,0.580946 1.090754,1.107079 1.275164,1.153361 0.109931,0.02759 0.601371,-0.125109 1.309225,-0.406479 1.5408727,-0.612504 1.4844822,-0.606868 2.2693787,-0.226782 0.362441,0.175515 0.960158,0.423649 1.328254,0.551415 0.79082,0.274486 0.812333,0.299151 1.447607,1.65966 0.250878,0.537293 0.518784,1.095083 0.595341,1.239535 l 0.139197,0.262651 1.121341,-0.02222 1.121343,-0.02221 z"
   inkscape:label="inner"
   sodipodi:nodetypes="ssssscsscssssssssccccssscscscsscsssccssscsssccccscccssssssscscsscccc" /></svg>
