<?xml version="1.0" encoding="UTF-8" standalone="no"?>
<svg
   width="100%"
   height="100%"
   viewBox="0 0 32 32"
   version="1.1"
   xml:space="preserve"
   style="clip-rule:evenodd;fill-rule:evenodd;stroke-linejoin:round;stroke-miterlimit:1.41421"
   id="svg6"
   sodipodi:docname="settings.svg"
   inkscape:version="1.4.2 (f4327f4, 2025-05-13)"
   xmlns:inkscape="http://www.inkscape.org/namespaces/inkscape"
   xmlns:sodipodi="http://sodipodi.sourceforge.net/DTD/sodipodi-0.dtd"
   xmlns="http://www.w3.org/2000/svg"
   xmlns:svg="http://www.w3.org/2000/svg"
   xmlns:rdf="http://www.w3.org/1999/02/22-rdf-syntax-ns#"
   xmlns:cc="http://creativecommons.org/ns#"
   xmlns:dc="http://purl.org/dc/elements/1.1/"><defs
   id="defs6"><linearGradient
     id="swatch2"
     inkscape:swatch="solid"><stop
       style="stop-color:#93a472;stop-opacity:1;"
       offset="0"
       id="stop2" /></linearGradient></defs><sodipodi:namedview
   id="namedview6"
   pagecolor="#ffffff"
   bordercolor="#000000"
   borderopacity="0.25"
   inkscape:showpageshadow="2"
   inkscape:pageopacity="0.0"
   inkscape:pagecheckerboard="0"
   inkscape:deskcolor="#d1d1d1"
   inkscape:zoom="16"
   inkscape:cx="18.40625"
   inkscape:cy="15.09375"
   inkscape:window-width="1920"
   inkscape:window-height="991"
   inkscape:window-x="-9"
   inkscape:window-y="-9"
   inkscape:window-maximized="1"
   inkscape:current-layer="svg6"
   showgrid="true"
   showguides="false"><inkscape:grid
     id="grid1"
     units="px"
     originx="0"
     originy="0"
     spacingx="1"
     spacingy="1"
     empcolor="#0099e5"
     empopacity="0.30196078"
     color="#0099e5"
     opacity="0.14901961"
     empspacing="5"
     enabled="true"
     visible="true" /></sodipodi:namedview>
<metadata
   id="metadata1">
<rdf:RDF>

     <rdf:Description
   rdf:about="">
       <dc:title>Mutant Standard emoji 2024.06</dc:title>
     </rdf:Description>

    <cc:work
   rdf:about="">
        <cc:license
   rdf:resource="http://creativecommons.org/licenses/by-nc-sa/4.0/" />
        <cc:attributionName>Caius Nocturne</cc:attributionName>
        <cc:attributionURL>http://mutant.tech/</cc:attributionURL>
    </cc:work>

</rdf:RDF>
</metadata>
<clipPath
   id="_clip1"><path
     d="M 32,0 V 32 H 0 V 0 Z"
     id="path1" /></clipPath><path
   id="path9-0-9"
   style="clip-rule:evenodd;fill:none;fill-opacity:1;fill-rule:evenodd;stroke:#141414;stroke-width:4.0724;stroke-linejoin:round;stroke-miterlimit:1.41421;stroke-dasharray:none;stroke-opacity:1"
   inkscape:label="shadow"
   d="M 14.282852,2.5362488 14.08669,2.8869789 C 13.97886,3.0803118 13.719829,3.6556276 13.511931,4.1669424 13.304032,4.6782573 13.037296,5.2025428 12.919519,5.3320114 12.786973,5.4777147 12.491461,5.6397766 12.142713,5.7573221 11.832822,5.8617711 11.226985,6.112748 10.797033,6.3136527 9.88355,6.740504 9.9812229,6.7493055 8.3018384,6.083864 7.7387867,5.8607599 7.2439732,5.6787101 7.2033248,5.6787101 c -0.040647,0 -0.4263022,0.3475197 -0.8572329,0.7720096 -0.6889926,0.6786938 -0.7763225,0.7956599 -0.7238418,0.9715628 0.032832,0.1100159 0.2405354,0.702128 0.4609833,1.3162458 0.5294167,1.4748107 0.5306689,1.6246007 0.01177,2.7715747 -0.2263645,0.500392 -0.453133,1.043502 -0.5041391,1.207398 -0.1391003,0.447004 -0.3396876,0.591944 -1.6575784,1.197321 -0.6640506,0.305035 -1.2538235,0.591338 -1.3103697,0.636958 -0.076492,0.0617 -0.097037,0.370231 -0.080427,1.207398 l 0.021578,1.126772 1.3966814,0.70146 c 1.0941547,0.551061 1.4206037,0.755256 1.5143794,0.939311 0.065805,0.129152 0.3386129,0.76026 0.6061441,1.402921 0.4814737,1.156583 0.4860016,1.172254 0.3942879,1.584333 -0.050961,0.228972 -0.2510861,0.825931 -0.4433287,1.326324 -0.5083564,1.323202 -0.5054565,1.299835 -0.1510457,1.715352 0.5113836,0.599556 1.0957322,1.141494 1.2809453,1.189258 l 1.2593674,0.540205 c 0.019183,0.0083 0.051818,0.0098 0.09612,0.004 0.198339,-0.02576 0.6370397,-0.185931 1.2181733,-0.423294 0.9616534,-0.392797 1.3039444,-0.540897 1.6144234,-0.501908 0.237818,0.102687 0.47077,0.194556 0.664992,0.266072 0.0034,0.0012 0.0085,0.0028 0.01177,0.004 0.01107,0.0051 0.02305,0.0099 0.03531,0.0141 0.0079,0.0028 0.01984,0.0094 0.02746,0.01209 0.794264,0.283279 0.815528,0.309246 1.453568,1.713336 0.251972,0.554505 0.521408,1.130884 0.598298,1.279964 l 0.139275,0.270103 h 0.02942 c -0.002,0.0011 -0.0076,0.0034 -0.0099,0.004 -0.0022,3.42e-4 -0.0054,2.31e-4 -0.0079,0 l 1.247598,0.536175 1.127938,-0.02419 1.125976,-0.02217 0.443329,-0.99172 c 0.895126,-1.99902 0.847141,-1.935151 1.618346,-2.195087 0.301197,-0.101522 0.901266,-0.349032 1.331947,-0.550283 l 0.782692,-0.366857 0.664993,0.245914 c 0.366181,0.135597 0.967436,0.362 1.33587,0.501909 0.368438,0.139908 0.741281,0.253975 0.827808,0.253975 0.0909,0 0.466288,-0.315866 0.88862,-0.749835 0.856233,-0.87983 0.837509,-0.695391 0.221663,-2.324091 -0.506497,-1.339512 -0.524629,-1.591424 -0.166737,-2.31603 0.147511,-0.298663 0.383512,-0.867324 0.523755,-1.263837 0.293167,-0.828876 0.174943,-0.73356 2.089137,-1.652867 l 1.108322,-0.534157 -0.02157,-1.18321 -0.02354,-1.183212 -0.602222,-0.310415 c -0.331936,-0.170645 -0.957665,-0.473949 -1.388755,-0.675253 -0.622065,-0.290485 -0.803322,-0.415302 -0.876849,-0.600676 -0.05097,-0.128469 -0.313067,-0.715969 -0.582604,-1.306167 -0.33224,-0.727504 -0.487663,-1.166699 -0.482561,-1.366638 0.0065,-0.256278 0.348115,-1.3779567 0.812115,-2.6667587 L 26.439032,7.7910698 25.717152,7.0452644 C 25.319851,6.6351485 24.93794,6.280086 24.867815,6.2572133 l -1.253482,-0.5361737 -0.0079,-0.00404 h -0.002 c -0.0023,-5.792e-4 -0.0051,-0.00202 -0.0079,-0.00201 -0.0013,-9.62e-5 -0.0024,3.88e-5 -0.0039,0 -0.111475,-0.00293 -0.616398,0.1585701 -1.163169,0.3728991 C 20.770229,6.7383201 20.777165,6.7378139 19.89117,6.3096174 19.651229,6.1936552 19.373996,6.0684377 19.137904,5.9689657 18.948759,5.6867156 18.776237,5.2657757 18.461128,4.5781433 18.196817,4.0013618 17.991972,3.4967747 17.853022,3.2941484 17.807877,3.228312 17.760561,3.1961863 17.715708,3.1490187 17.509021,3.0187174 16.900257,2.6556181 16.526958,2.6551745 16.450748,2.5608146 16.197199,2.5362487 15.355865,2.5362488 Z m 2.346112,7.5406972 c 0.580391,0 1.118635,0.100665 1.673271,0.241884 1.92448,0.945369 3.093493,3.083762 3.093493,5.410113 0,3.419858 -2.697992,6.192202 -6.026131,6.192202 -0.580392,0 -1.093135,-0.02003 -1.671311,-0.241883 -1.893092,-0.969557 -3.095453,-3.083764 -3.095453,-5.410114 0,-3.419858 2.697991,-6.192202 6.026131,-6.192202 z"
   sodipodi:nodetypes="ccssscsssccccsccccssssscccccccccscccccccccscccsssssscccccsssccccccccccsscssccscscsscss" /><path
   id="path9-0"
   style="clip-rule:evenodd;fill:#878585;fill-opacity:1;fill-rule:evenodd;stroke:none;stroke-width:1.0181;stroke-linejoin:round;stroke-miterlimit:1.41421"
   d="M 15.542981,3.0744772 15.346818,3.4252073 C 15.238989,3.6185401 14.979957,4.1958716 14.77206,4.7071864 14.56416,5.2185013 14.297424,5.7427869 14.179647,5.8722556 14.047102,6.0179589 13.75159,6.1800207 13.402841,6.2975663 13.09295,6.4020152 12.487114,6.6509763 12.057162,6.8518811 11.143679,7.2787323 11.24135,7.2895496 9.5619673,6.624108 8.9989157,6.4010041 8.5041022,6.2169386 8.4634538,6.2169386 c -0.040647,0 -0.4263022,0.3475196 -0.8572329,0.7720094 C 6.9172282,7.667642 6.8298985,7.7846079 6.882379,7.9605109 6.915211,8.0705269 7.1229144,8.6626389 7.3433624,9.2767567 7.872779,10.751569 7.8740313,10.901357 7.3551324,12.048331 7.1287678,12.548723 6.9000377,13.091833 6.8490316,13.255729 6.7099314,13.702732 6.5093439,13.847674 5.1914532,14.45305 4.6216287,14.714802 4.108376,14.963709 3.9379707,15.057758 h 3.8624517 v 5.079539 H 7.2021249 c 0.045687,0.108417 0.092789,0.218905 0.1392758,0.330572 0.4814737,1.156585 0.4860017,1.174272 0.3942879,1.58635 -0.05096,0.228971 -0.2510861,0.825932 -0.4433287,1.326324 -0.5083564,1.323201 -0.626329,2.152616 -0.1299939,2.36514 l 1.2598936,0.53947 c 0.019185,0.0083 0.051477,0.0092 0.095779,0.0034 0.1983389,-0.02576 0.6373807,-0.18528 1.2185141,-0.422644 1.5475843,-0.632125 1.4911013,-0.628097 2.2794163,-0.235835 0.36402,0.181137 1.466386,-0.166125 1.333909,0.57044 0.794264,0.283278 1.176529,2.828508 0.932362,2.723852 l 1.258779,0.53955 1.127937,-0.02419 1.125977,-0.02217 0.443328,-0.99172 c 0.895127,-1.99902 0.84714,-1.935151 1.618347,-2.195087 0.301197,-0.101521 0.901265,-0.349033 1.331947,-0.550284 l 0.782691,-0.366855 0.664993,0.245914 c 0.366181,0.135596 0.967437,0.361999 1.335871,0.501906 0.368438,0.13991 0.741281,0.253978 0.827808,0.253978 0.0909,0 0.466288,-0.315866 0.88862,-0.749836 0.856233,-0.87983 0.83751,-0.695392 0.221665,-2.324092 -0.506498,-1.339511 -0.52463,-1.591423 -0.166739,-2.316028 0.147511,-0.298663 0.383512,-0.867326 0.523756,-1.263839 0.293167,-0.828875 0.174943,-0.733559 2.089137,-1.652865 l 1.108321,-0.534158 -0.02157,-1.18321 -0.02354,-1.183211 -0.602221,-0.310416 c -0.332017,-0.170648 -0.957746,-0.473979 -1.388835,-0.675282 -0.622067,-0.290486 -0.803323,-0.415303 -0.87685,-0.600676 -0.05096,-0.128469 -0.313066,-0.715969 -0.582604,-1.306167 -0.33224,-0.727505 -0.487663,-1.166699 -0.482563,-1.366638 0.0065,-0.256278 0.348117,-1.3779572 0.812116,-2.6667592 L 26.439844,7.7911929 25.717963,7.0453874 C 25.320612,6.6351875 24.938701,6.280125 24.868577,6.2572524 L 23.607679,5.7180404 C 23.453929,5.6522904 22.03728,7.278062 21.151285,6.8498654 20.740676,6.6514206 20.162475,6.6076305 19.932554,6.530398 19.147231,6.2665878 19.095397,5.9606307 18.461889,4.5781822 18.197577,4.0014008 17.992464,3.4968916 17.853514,3.2942653 17.808367,3.2284287 17.760712,3.1966745 17.715858,3.1495066 17.509171,3.0192054 16.900273,2.6564405 16.526975,2.6559969 16.171994,2.655575 15.542981,3.0744772 15.542981,3.0744772 Z m 1.086744,7.0025088 c 3.32814,0 6.026132,2.772343 6.026132,6.192201 0,3.419857 -2.697992,6.192201 -6.026132,6.192201 -3.328139,0 -6.026131,-2.772344 -6.026131,-6.192201 0,-3.419858 2.697992,-6.192201 6.026131,-6.192201 z"
   inkscape:label="shadow"
   sodipodi:nodetypes="ccssscsssccccsccccsssssscscsccccscccsssssscccccssscccccsscsssscsssss" /><path
   id="path9"
   style="fill:#faf5f5;fill-opacity:1;stroke:none;stroke-width:1.0181"
   d="m 21.396913,15.72997 c 0,3.419858 -2.697991,6.192201 -6.026131,6.192201 -3.32814,0 -6.0261317,-2.772343 -6.0261317,-6.192201 2e-7,-3.419858 2.6979917,-6.1922007 6.0261317,-6.1922008 3.32814,0 6.026131,2.7723428 6.026131,6.1922008 z M 16.97904,27.885971 c 0.895127,-1.99902 0.847591,-1.934579 1.618796,-2.194516 0.301196,-0.101521 0.900005,-0.349239 1.330686,-0.55049 l 0.783057,-0.365911 0.665782,0.246539 c 0.366181,0.135595 0.967231,0.361009 1.335665,0.500915 0.368438,0.13991 0.740682,0.25438 0.82721,0.25438 0.0909,0 0.465982,-0.317164 0.888313,-0.751134 0.856233,-0.879829 0.838558,-0.695384 0.222712,-2.324084 -0.506496,-1.339511 -0.524547,-1.590215 -0.166656,-2.314821 0.147512,-0.298663 0.382948,-0.86744 0.523192,-1.263953 0.293166,-0.828876 0.1742,-0.73466 2.088393,-1.653966 l 1.10899,-0.5326 -0.02236,-1.183268 -0.02236,-1.183272 -0.603682,-0.310222 c -0.33201,-0.170623 -0.95638,-0.474926 -1.387468,-0.67623 -0.622066,-0.290485 -0.802915,-0.414206 -0.876443,-0.599578 -0.05096,-0.12847 -0.313176,-0.716465 -0.582714,-1.306663 -0.332239,-0.727504 -0.487643,-1.168074 -0.482541,-1.368014 0.0065,-0.256277 0.347717,-1.3765938 0.811716,-2.6653958 L 25.180485,7.2516086 24.458031,6.505788 C 24.060679,6.0955882 23.677804,5.7412574 23.607679,5.7183849 23.537547,5.6955186 23.008091,5.8620121 22.430615,6.088377 20.771323,6.7388056 20.77804,6.7382195 19.892045,6.3100229 19.481436,6.1115781 18.957367,5.8860194 18.727447,5.808787 17.942125,5.5449767 17.83617,5.4220411 17.20266,4.0395928 16.884279,3.3448207 16.580452,2.7222088 16.526975,2.6559969 c -0.07621,-0.09436 -0.329697,-0.120395 -1.171031,-0.120395 h -1.07338 l -0.196046,0.3515149 c -0.10783,0.1933328 -0.366143,0.7698633 -0.57404,1.2811781 -0.2079,0.5113149 -0.474361,1.035594 -0.592138,1.1650625 C 12.787795,5.4790608 12.491512,5.6411151 12.142764,5.7586607 11.832873,5.8631096 11.227553,6.1129436 10.797601,6.3138482 9.8841174,6.7406995 9.9812329,6.749636 8.3018479,6.0841945 7.7387964,5.8610905 7.2448625,5.6785527 7.2042142,5.6785527 c -0.040647,0 -0.4264813,0.3473094 -0.8574119,0.7717992 C 5.6578098,7.1290458 5.57049,7.2462835 5.6229701,7.4221864 c 0.03283,0.110016 0.2400523,0.7024889 0.4605003,1.3166068 0.5294167,1.4748108 0.5300172,1.6237828 0.011114,2.7707558 -0.2263646,0.500392 -0.453301,1.043902 -0.504307,1.207797 -0.1390999,0.447004 -0.339746,0.591928 -1.6576371,1.197304 -0.6640501,0.305035 -1.2536277,0.591932 -1.3101739,0.637552 -0.076494,0.0617 -0.097099,0.371027 -0.080492,1.208194 l 0.02233,1.125253 1.3958895,0.703027 c 1.0941552,0.551061 1.4217552,0.753785 1.5155313,0.937841 0.065802,0.129152 0.3385307,0.760626 0.6060619,1.403287 0.4814738,1.156584 0.4854811,1.172712 0.3937674,1.584791 -0.050961,0.228972 -0.2499437,0.825724 -0.4421865,1.326117 -0.5083564,1.323201 -0.5062282,1.299146 -0.1518173,1.714663 0.5113836,0.599556 1.0955046,1.142543 1.2807177,1.190308 0.1104097,0.02848 0.6039901,-0.129117 1.314927,-0.4195 1.5475836,-0.632125 1.4909475,-0.626308 2.2792626,-0.234047 0.364019,0.181138 0.96434,0.43722 1.334039,0.569079 0.794264,0.283278 0.815871,0.308734 1.453911,1.712825 0.251971,0.554505 0.521044,1.130163 0.597934,1.279242 l 0.139804,0.271064 1.126224,-0.02293 1.126227,-0.02292 z"
   inkscape:label="inner"
   sodipodi:nodetypes="ssssscsscssssssssccccssscscscsscsssccssscsssccccscccssssssscscsscccc" /></svg>
